<svg xmlns="http://www.w3.org/2000/svg" viewBox="0 0 1743.82 687.4"><defs><style>.cls-1{fill:#fff;}</style></defs><g id="Camada_2" data-name="Camada 2"><g id="Camada_1-2" data-name="Camada 1"><path class="cls-1" d="M1301.88,0h180.74l261.2,687.39c-40.89,0-80.44,0-120,0-30.59,0-30.58-.08-40.9-29.27q-11.36-32.11-22.79-64.21c-.12-.34-.61-.55-1.57-1.37-32.47,20.54-69.25,13.51-104.88,14.73-12.87.44-25.76.07-39.92.07v59l.16,18.83h-27.7l.11-18.83c0-20.22.38-38.9-.58-57.74-36-6.44-50.81-42.26-48.34-66.38,3.16-30.86,25.37-57.67,57.46-60.87,38.38-3.82,77.28-3.44,115.94-3,17.61.18,28.18,13.38,28.14,29.33,0,15-9.7,24.92-29.37,26.19-28.31,1.84-56.74,2.37-85.12,2.23-11.63-.06-14.7,4.09-14.58,15,.28,24.84-.14,25.22,24.19,24.87,30.55-.44,61.13-.79,91.61-2.63,34.24-2.07,50.4-13.47,53.45-56,1.25-17.57-5.9-36-10.68-53.65-3.46-12.77-9-25-14.16-37.29-14.74-35.08-27.57-70.49-19.14-111.88-11,0-19.39-.15-27.78,0-43,.88-86.24-.7-129,3.3-84,7.87-144.54,74.25-147.45,158.74-1.1,32-.24,64.11-.45,96.17a22.41,22.41,0,0,1-1.19,6.44q-20.16,53.72-40.59,107.54H1041.49Q1172.05,342.38,1301.88,0Zm66.63,148.76c-40.86,0-73.36,33.57-73.28,75.67.09,43.1,34.13,77.66,76.43,77.57,40.87-.08,75.47-34.21,75.45-74.42A78.56,78.56,0,0,0,1368.51,148.76Z"/><path class="cls-1" d="M1290.84,464.18c-.08-8.44,1.64-14.11,11.91-14.1s13.27,5.09,13.23,14.48c-.18,45.51-.08,91,0,136.53,0,9.1-1.87,16.28-13.28,16.09C1291.81,617,1292,609.64,1292,602,1292.09,579.22,1291,487.36,1290.84,464.18Z"/><path class="cls-1" d="M1451.09,462.4c-28.17-.24-47.92-20-47.77-47.77.14-26.62,20.67-45.91,48.45-45.5,26,.39,48.06,23,47.74,49.1C1499.19,443.9,1478.64,462.65,1451.09,462.4Z"/><path class="cls-1" d="M800.22,2.22c50.14,0,100.3-.65,150.43.19,44.42.76,87.93,8,128.49,27.14,52.24,24.66,83.28,66.76,94.94,122.61,11,52.77,9.68,105.48-10.09,156.29-25.48,65.47-73.25,106.19-141.41,123a309.8,309.8,0,0,1-72.22,8.82q-66.57.42-133.13,1c-12.45.11-15.42,3.24-15.42,15.95q0,68.06,0,136.1c0,25.49,1.87,93.45,1.87,93.45-80.71-.1-67.81-.11-148.52,0,0,0-.57-97.1-.56-104.7q.12-143.62.06-287.25c0-10.24,0-10,10.22-10.37,34.81-1.3,104.4-4.16,104.4-4.16l6.07-.22-.94-19.38-11.78.26s-82.06,1.58-123.06,3.25c-39,1.6-78,4.54-117.1,6.52-14.26.72-28.63,1.2-42.84.25-13.77-.93-22.5-9.95-23.8-23.51a160.55,160.55,0,0,1-.07-29.25c1.13-12.91,13.45-23.89,27.31-23.75,25.51.25,51,1.45,76.52,2.36,11,.39,21.91,1.06,32.86,1.59,21.43,1,42.85,2.19,64.29,3.08q53.61,2.25,107.25,4.12a81.56,81.56,0,0,0,8.82-.58l-.41-19s-5.78-.39-9-.57c-14-.75-28.12-1.21-42.18-1.64-20-.61-40.07-1.26-60.11-1.55-6.33-.09-8.08-2.72-8-8.73.23-28.89.2-171.52.2-171.52C706.32,1.94,747.21,2.22,800.22,2.22Zm90.63,140c-27.2,0-54.41.19-81.61-.14-6.7-.08-9.06,1.58-9,8.69q.42,79.83,0,159.66c0,6.51,1.74,8.59,8.43,8.55q81.62-.37,163.23,0c6.9,0,8.39-2.42,8.37-8.71q-.27-79.83,0-159.66c0-6.52-1.9-8.63-8.55-8.55C944.79,142.42,917.82,142.22,890.85,142.23Zm0,201.74c-34.13,0-68.26-.1-102.4,0-14.33.06-23.87,10.17-23.9,24.67s9.51,24.75,23.79,24.77q101.68.15,203.37,0a25,25,0,0,0,10.94-2.49c10.19-5.16,15.26-17.52,12.36-28.64-3.12-11.94-11.15-18.26-23.91-18.29C957.69,343.9,924.27,344,890.85,344Zm-.71-273.9v0c-33.64,0-67.28-.23-100.92.09-17.49.16-28.44,18.31-21.1,34.24,4.77,10.36,13.38,14,24.39,14q98.06-.15,196.12,0a54.48,54.48,0,0,0,5.72-.18c13.07-1.42,23.34-15.85,20.41-28.59-3-13.19-10.79-19.46-25.13-19.52C956.47,70,923.31,70.07,890.14,70.07Z"/><path class="cls-1" d="M451.38,459H598c-4,39.61-17.33,75.37-38.81,107.92C518,629.31,457.86,664.06,386.21,678c-97.68,19-188.56,1.14-268.46-60.4C60.48,573.48,27.17,513.6,12,444-9,348.05-4,253.85,39.64,164.3,84,73.35,159.22,23.15,257.32,5.89c69.75-12.27,138-5.83,202.93,23.64,86.69,39.31,132,107.91,140.8,202.56a46.63,46.63,0,0,1-7,1.06c-43.31.06-86.62-.13-129.93.22-7.22.06-9.44-2.34-11.46-9.13-16.32-54.83-62.45-89-119.47-92.66-90.64-5.88-147,48-167.88,113.89-23,72.52-22.23,145.58,8.6,216.07,42,95.94,148.43,108.19,216.19,77.29C423.74,523.5,444.06,496.49,451.38,459Z"/></g></g></svg>